<?xml version="1.0" encoding="UTF-8" standalone="no"?>
<!-- Created with Inkscape (http://www.inkscape.org/) -->

<svg
   version="1.1"
   id="svg1"
   width="281.40024"
   height="283.065"
   viewBox="0 0 281.40024 283.065"
   sodipodi:docname="path4781.svg"
   xml:space="preserve"
   inkscape:version="1.4.2 (f4327f4, 2025-05-13)"
   xmlns:inkscape="http://www.inkscape.org/namespaces/inkscape"
   xmlns:sodipodi="http://sodipodi.sourceforge.net/DTD/sodipodi-0.dtd"
   xmlns:xlink="http://www.w3.org/1999/xlink"
   xmlns="http://www.w3.org/2000/svg"
   xmlns:svg="http://www.w3.org/2000/svg"><defs
     id="defs1"><linearGradient
       id="linearGradient5162"><stop
         style="stop-color:#daa554;stop-opacity:1"
         offset="0"
         id="stop5239" /><stop
         style="stop-color:#db9e45;stop-opacity:1"
         offset="0.20248835"
         id="stop5240" /><stop
         style="stop-color:#fbc45c;stop-opacity:1"
         offset="0.38095081"
         id="stop5241" /><stop
         style="stop-color:#fbed9e;stop-opacity:1"
         offset="0.5353964"
         id="stop5242" /><stop
         style="stop-color:#fec260;stop-opacity:1"
         offset="0.65355003"
         id="stop5243" /><stop
         style="stop-color:#d49d45;stop-opacity:1"
         offset="0.73057806"
         id="stop5244" /><stop
         style="stop-color:#daa554;stop-opacity:1"
         offset="1"
         id="stop5245" /></linearGradient><linearGradient
       inkscape:collect="always"
       xlink:href="#linearGradient5162"
       id="linearGradient5247"
       x1="388.71094"
       y1="442.58502"
       x2="670.11121"
       y2="442.58502"
       gradientUnits="userSpaceOnUse" /><linearGradient
       inkscape:collect="always"
       xlink:href="#linearGradient5162"
       id="linearGradient2"
       gradientUnits="userSpaceOnUse"
       x1="388.71094"
       y1="442.58502"
       x2="670.11121"
       y2="442.58502" /><linearGradient
       inkscape:collect="always"
       xlink:href="#linearGradient5162"
       id="linearGradient3"
       gradientUnits="userSpaceOnUse"
       x1="388.71094"
       y1="442.58502"
       x2="670.11121"
       y2="442.58502" /></defs><sodipodi:namedview
     id="namedview1"
     pagecolor="#ffffff"
     bordercolor="#000000"
     borderopacity="0.25"
     inkscape:showpageshadow="2"
     inkscape:pageopacity="0.0"
     inkscape:pagecheckerboard="0"
     inkscape:deskcolor="#d1d1d1"
     showgrid="false"
     inkscape:zoom="1.4142136"
     inkscape:cx="-15.909903"
     inkscape:cy="110.30866"
     inkscape:window-width="1920"
     inkscape:window-height="1112"
     inkscape:window-x="-8"
     inkscape:window-y="1342"
     inkscape:window-maximized="1"
     inkscape:current-layer="path4781"><inkscape:page
       x="0"
       y="0"
       width="281.40024"
       height="283.065"
       id="page2"
       margin="0"
       bleed="0" /></sodipodi:namedview><g
     inkscape:groupmode="layer"
     inkscape:label="Image"
     id="g1"
     transform="translate(-356.78757,-334.74945)"><g
       id="path4781"
       style="opacity:1;fill:url(#linearGradient5247)"
       transform="translate(-31.923387,33.696909)"><path
         id="path5245"
         style="baseline-shift:baseline;display:inline;overflow:visible;vector-effect:none;fill:url(#linearGradient2);stroke-miterlimit:0;enable-background:accumulate;stop-color:#000000;stop-opacity:1"
         d="m 518.77947,580.94771 c -1.50477,-0.4531 -4.21141,-1.73569 -6.01474,-2.85021 -1.80334,-1.11453 -4.22516,-3.30644 -5.38183,-4.87093 -1.15668,-1.56448 -3.06679,-4.73361 -4.2447,-7.04251 -1.17792,-2.3089 -2.85404,-7.24509 -3.72473,-10.96932 -1.0819,-4.62766 -1.58584,-11.6783 -1.59182,-22.27132 -0.005,-8.71489 0.72463,-21.19074 1.66659,-28.5 0.92144,-7.15 2.77417,-18.625 4.11717,-25.5 1.343,-6.875 3.75855,-17.65217 5.3679,-23.94928 l 2.92608,-11.44927 -7.67468,-8.55073 c -4.22108,-4.70289 -13.98247,-15.01589 -21.69198,-22.91776 -7.70952,-7.90187 -19.1923,-18.84719 -25.5173,-24.32293 -6.325,-5.47574 -16.80903,-13.52395 -23.29786,-17.8849 -6.48882,-4.36096 -16.83882,-10.40898 -23,-13.44005 l -11.20214,-5.51104 -0.2542,115.01298 -0.2542,115.01298 h -4.01431 -4.0143 l 0.2685,-127.75 c 0.26851,-127.75 0.52977,-127.17522 2.95429,-132.84002 1.24547,-2.91 4.35586,-6.55637 6.39707,-8.34858 2.04121,-1.79221 5.74098,-4.12859 8.22171,-5.19195 2.48072,-1.06336 7.85016,-2.3979 11.93208,-2.96565 5.18205,-0.72075 10.0942,-0.70731 16.27794,0.0446 4.87096,0.59225 11.92284,2.0224 15.67085,3.17811 3.74801,1.15571 9.06457,3.23734 11.81457,4.62584 2.75,1.38851 7.475,4.21177 10.5,6.27392 3.025,2.06214 8.69954,7.06235 12.61009,11.11156 3.91055,4.04922 9.61324,11.20281 12.67265,15.89688 3.05941,4.69406 8.45617,14.36906 11.9928,21.5 3.53664,7.13093 8.17673,17.12783 10.31132,22.21533 2.1346,5.0875 4.13727,9.25 4.4504,9.25 0.31312,0 2.06905,-3.7125 3.90206,-8.25 1.83301,-4.5375 6.40434,-14.34208 10.1585,-21.78795 3.75417,-7.44587 9.94222,-18.25666 13.75123,-24.02398 4.69963,-7.11583 9.96673,-13.39349 16.38805,-19.53231 7.36886,-7.04468 11.32123,-9.95178 17.86274,-13.13865 4.62009,-2.2508 11.4971,-4.84259 15.28224,-5.75953 3.88344,-0.94076 11.07278,-1.68327 16.5,-1.70411 7.33495,-0.0282 11.14112,0.48139 16.035,2.14671 3.52939,1.201 8.29709,3.47713 10.59488,5.05805 2.2978,1.58092 5.66392,4.567 7.48029,6.63572 1.81636,2.06872 4.56881,6.48263 6.11656,9.80868 1.54775,3.32605 3.59795,8.68414 4.32542,12.04737 1.22702,5.67282 2.05497,14.4719 2.32744,123.75 0.19548,78.40298 -0.0422,117.75 -0.71121,117.75 -0.55264,0 -4.00401,-1.1289 -7.66972,-2.50867 -3.6657,-1.37976 -10.98847,-4.77326 -16.27283,-7.5411 -5.28435,-2.76785 -13.65791,-7.92797 -18.60791,-11.46695 -4.95,-3.53898 -13.25651,-9.93298 -18.45892,-14.20889 -5.20241,-4.27592 -15.32741,-13.62648 -22.5,-20.77904 -7.17259,-7.15256 -17.29704,-17.72756 -22.49878,-23.5 -5.20173,-5.77244 -9.73184,-10.61788 -10.06689,-10.76765 -0.33506,-0.14976 0.0172,3.90024 0.78282,9 0.78197,5.20873 1.46162,18.2564 1.55082,29.7723 0.12793,16.51432 -0.17648,21.8165 -1.56568,27.27132 -0.94846,3.72423 -2.60722,8.50164 -3.68613,10.61647 -1.0789,2.11483 -3.20226,5.31954 -4.71858,7.12158 -1.51631,1.80203 -5.02532,4.33273 -7.79779,5.62376 -3.09504,1.44124 -6.77792,2.31792 -9.54087,2.27115 -2.475,-0.0419 -5.73118,-0.4469 -7.23596,-0.89999 z m 12.5337,-8.35533 c 1.77843,-0.74308 4.66966,-2.98674 6.42496,-4.98591 1.7553,-1.99917 3.90387,-6.0037 4.77461,-8.89896 0.87074,-2.89525 2.00117,-8.41409 2.51205,-12.26409 0.51089,-3.85 0.93797,-10.825 0.94906,-15.5 0.0111,-4.675 -0.62705,-14.59778 -1.41809,-22.05063 -0.79104,-7.45285 -1.91921,-16.67785 -2.50704,-20.5 -0.58783,-3.82215 -1.3182,-8.17159 -1.62304,-9.66542 -0.30484,-1.49383 -4.32926,-7.02549 -8.94316,-12.29258 -4.6139,-5.26708 -9.3194,-10.75945 -10.45668,-12.20526 -1.18807,-1.51039 -2.41098,-2.23679 -2.8745,-1.70743 -0.4437,0.50673 -1.99909,6.32132 -3.4564,12.92132 -1.45732,6.6 -3.51372,16.95 -4.56978,23 -1.05606,6.05 -2.46176,15.97815 -3.12378,22.06255 -0.67515,6.20497 -1.01376,18.0607 -0.77115,27 0.36784,13.55364 0.77339,16.80975 2.71138,21.76941 1.25337,3.20758 3.62844,7.36906 5.27794,9.24774 1.6495,1.87867 4.41587,3.82621 6.14748,4.32785 1.73162,0.50164 4.17535,0.95266 5.43052,1.00226 1.25516,0.0496 3.73719,-0.51778 5.51562,-1.26085 z M 659.99562,462.69342 c -0.0119,-64.71568 -0.40882,-109.94031 -1.00069,-114.03359 -0.53948,-3.73098 -1.91068,-9.54366 -3.0471,-12.91708 -1.13642,-3.37341 -3.43656,-8.1252 -5.11142,-10.55953 -1.67486,-2.43432 -5.13225,-5.75224 -7.68309,-7.37315 -2.55084,-1.6209 -7.02464,-3.64298 -9.94178,-4.4935 -2.97128,-0.8663 -8.90848,-1.525 -13.5,-1.49774 -4.50786,0.0268 -10.89611,0.74751 -14.19611,1.60166 -3.3,0.85415 -9.35982,3.19391 -13.46627,5.19947 -5.6146,2.74214 -9.61508,5.77646 -16.13071,12.23497 -5.24017,5.19423 -11.30547,12.6325 -15.34703,18.82105 -3.67543,5.62791 -9.99003,17.10291 -14.03245,25.5 -4.04242,8.39709 -9.17426,19.85215 -11.40408,25.45568 -4.05424,10.18824 -4.05424,10.18824 -2.03383,16 1.11123,3.19647 3.36717,10.53676 5.01321,16.31176 1.64604,5.775 4.50671,17.3685 6.35704,25.76333 l 3.36423,15.26332 10.31638,11.73668 c 5.67401,6.45517 17.75199,19.32167 26.83995,28.59223 9.08796,9.27056 22.14856,21.39116 29.02356,26.93466 6.875,5.5435 16.1,12.41504 20.5,15.2701 4.4,2.85505 11.58326,7.04696 15.9628,9.31534 4.37954,2.26839 8.31704,4.12434 8.75,4.12434 0.43296,0 0.77829,-48.2625 0.76739,-107.25 z m -123.92506,-6.80623 c -0.48987,-1.89407 -2.55752,-9.74377 -4.59478,-17.44377 -2.03725,-7.7 -4.02118,-14.34943 -4.40873,-14.7765 -0.38754,-0.42708 -1.95703,3.46451 -3.48776,8.64797 l -2.78313,9.42447 7.75741,9.12092 c 4.26658,5.01651 7.90372,8.97462 8.08253,8.7958 0.17882,-0.17881 -0.0757,-1.87481 -0.56554,-3.76889 z m -17.65708,-32.77084 c 1.98107,-5.95489 3.60195,-11.87878 3.60195,-13.1642 0,-1.28542 -2.09466,-7.55074 -4.6548,-13.92293 -2.56014,-6.37219 -7.4624,-17.2108 -10.89392,-24.0858 -3.43152,-6.875 -8.90547,-16.55 -12.16432,-21.5 -3.25885,-4.95 -8.52444,-11.80643 -11.7013,-15.23651 -3.17686,-3.43008 -8.77076,-8.21062 -12.43088,-10.62343 -3.66013,-2.41281 -8.90478,-5.37324 -11.65478,-6.57872 -2.75,-1.20549 -8.6,-3.05929 -13,-4.11956 -4.67201,-1.12582 -11.56449,-1.93068 -16.5685,-1.93477 -4.78779,-0.004 -10.83382,0.66572 -13.70258,1.51765 -2.82374,0.83856 -6.52515,2.69517 -8.22535,4.12579 -1.7002,1.43062 -4.03896,4.45703 -5.19726,6.72534 -1.25168,2.4512 -2.30012,6.8287 -2.58457,10.79116 l -0.47859,6.66696 5.37842,2.26952 c 2.95814,1.24823 9.65343,4.48966 14.87843,7.20317 5.225,2.71351 13.325,7.55377 18,10.75612 4.675,3.20235 13.45,9.7798 19.5,14.61655 6.05,4.83674 17.975,15.85342 26.5,24.48151 8.525,8.62808 18.875,19.51444 23,24.1919 4.125,4.67746 7.79162,8.53662 8.14805,8.5759 0.35642,0.0393 2.26892,-4.80076 4.25,-10.75565 z" /><path
         id="path5246"
         style="baseline-shift:baseline;display:inline;overflow:visible;vector-effect:none;fill:url(#linearGradient3);stroke-miterlimit:0;enable-background:accumulate;stop-color:#000000;stop-opacity:1"
         d="m 428.51758,301.05273 c -16.46958,-0.62771 -37.23631,7.96363 -38.28179,26.69584 -1.89428,58.8124 -0.98054,117.68809 -1.36428,176.53055 -0.0535,25.55345 -0.10705,51.10689 -0.16057,76.66033 2.28797,3.44221 8.48591,2.98422 11.42727,1.14402 2.65774,-3.69093 0.40301,-9.42676 1.16538,-13.90667 0.15715,-71.20672 0.31444,-142.41344 0.4718,-213.62016 43.42522,19.39724 76.29599,54.94733 107.62695,89.60156 -9.30092,36.25159 -17.44297,74.05734 -12.19726,111.57227 2.53882,14.06887 12.90286,29.23297 28.77148,28.38476 19.8132,-0.16712 29.42379,-21.63374 29.47395,-38.8378 0.32432,-16.34501 0.31408,-32.78112 -1.7552,-49.02352 31.95336,34.64533 65.96805,71.27611 111.84766,86.67578 6.03985,-5.17913 4.52217,-21.57367 4.4707,-31.44727 -0.0579,-67.69281 0.62733,-135.41545 -1.28148,-203.0865 -0.38403,-21.16416 -14.79085,-42.73313 -36.65596,-46.13747 -24.90448,-4.21438 -50.85306,6.03335 -67.08398,25.17922 -17.2399,18.79857 -27.77788,42.5405 -37.96496,65.62092 -13.69351,-30.73259 -27.90742,-65.13881 -59.01845,-82.06151 -12.04821,-6.55629 -25.84748,-9.582 -39.49126,-9.94435 z m -0.004,4.5293 c 26.01214,-0.0725 50.80667,13.56206 65.66036,34.75855 13.48101,17.95591 21.20402,39.32978 31.21269,59.17504 9.42309,-1.05428 9.3946,-19.11397 15.589,-26.22487 12.90366,-26.12479 29.62991,-54.49571 58.92249,-64.06943 19.08498,-6.31425 44.71147,-4.81569 56.31469,13.98407 11.92975,18.27744 7.4856,40.93151 8.85485,61.50511 0.3995,64.43881 1.01366,128.8933 -0.003,193.32661 -46.33192,-16.50199 -79.832,-54.55649 -112.49023,-89.50781 -9.35696,3.05144 1.02164,22.40311 -1.69095,31.68533 -0.0462,17.96719 3.00449,39.15905 -10.47795,53.44718 -10.74805,10.81441 -30.4238,5.7692 -35.24715,-8.50752 -7.96723,-19.05854 -4.83128,-40.3997 -3.41992,-60.42188 2.60133,-20.48865 7.0724,-40.67781 12.35742,-60.62695 -2.63931,-6.4906 -9.38949,-10.83913 -13.56958,-16.47601 -28.18117,-30.57274 -58.86397,-60.39838 -97.40278,-77.4637 -5.92258,-3.78861 -6.65452,4.5258 -5.89291,8.72911 -0.16152,73.2603 -0.32367,146.52061 -0.48629,219.78091 -6.26057,1.63324 -2.46616,-6.76739 -3.47226,-10.37759 0.38826,-78.33542 -0.25755,-156.68504 1.16628,-235.00839 -2.05246,-16.18235 13.86777,-27.08899 28.48393,-27.42326 1.85688,-0.19596 3.72466,-0.29059 5.59156,-0.2845 z m 191.1836,3.96875 c -22.71611,-0.56056 -42.8589,13.54512 -55.6683,31.42491 -14.80009,20.34993 -25.08501,43.68359 -34.05253,67.07579 -0.16198,13.31013 7.53863,25.80787 9.46634,39.08575 2.5617,9.3472 3.90976,19.08666 6.69003,28.32957 32.17396,36.03211 65.02883,73.87857 109.23438,95.3164 12.97899,4.27323 3.44009,-20.27823 6.63884,-27.05675 0.17146,-65.12558 0.90497,-130.28806 -0.76591,-195.39051 -1.80997,-16.04765 -10.25715,-33.32935 -27.39453,-37.19727 -4.60569,-1.21132 -9.40203,-1.56283 -14.14832,-1.58789 z m -190.74805,0.13281 c -14.7229,-1.44201 -31.65227,7.14232 -31.82786,23.66694 -0.52803,4.59636 -2.03904,11.31233 4.43304,12.06829 45.05461,18.42773 78.57192,55.01884 110.87529,90.00891 8.98733,-1.23289 10.33987,-19.55251 11.40625,-27.89257 -9.54664,-26.91041 -21.64879,-53.84965 -40.92755,-75.27781 -14.04807,-14.44329 -33.85236,-22.54755 -53.95917,-22.57376 z m 190.77539,4.40235 c 14.71106,-0.93235 30.35022,7.30536 34.07422,22.38086 5.73958,18.90019 2.72669,39.00044 3.73695,58.46997 0.22103,57.22052 0.46052,114.44881 -0.39125,171.66479 -43.36937,-21.12518 -75.59342,-58.33709 -107.2207,-93.68945 -4.38824,-20.28172 -8.92162,-40.57973 -15.70771,-60.22005 1.57379,-12.34605 8.93401,-23.43895 13.60034,-34.93236 11.1667,-22.73466 24.54857,-47.47232 48.5094,-58.593 7.34852,-3.46394 15.29045,-5.06181 23.39875,-5.08076 z m -190.7793,0.13281 c 26.15971,-0.40052 50.37102,15.26624 63.46289,37.4707 11.28031,18.26389 20.90591,37.76459 27.33985,58.26367 -2.63898,6.31688 -3.89533,29.13762 -12.03127,13.84375 -30.44397,-33.43679 -63.80535,-66.47094 -106.58008,-83.47656 -0.14663,-10.18036 3.45384,-22.22425 14.7539,-24.67773 4.26379,-1.02499 8.68053,-1.35426 13.05471,-1.42383 z m 97.61133,107.18945 c -5.28728,4.73011 -5.35501,13.20401 -7.93555,19.68946 2.26518,6.39324 8.79685,10.71909 12.62765,16.30998 11.81656,13.17214 5.85812,-10.94576 3.18146,-16.66184 -2.8648,-5.34892 -1.71428,-16.94778 -7.87356,-19.3376 z m 0.20313,8.57032 c 1.74009,7.90485 10.26815,29.85162 -0.0991,15.15575 -6.15699,-4.07429 -0.78218,-9.69256 0.0991,-15.15575 z m -7.9336,20.11523 c -9.06887,9.51633 -7.32806,27.59492 -11.35028,40.41983 -3.52565,22.25674 -5.61811,45.43433 -1.33425,67.69186 2.22664,15.41743 23.15526,24.86074 33.29977,10.89808 10.72306,-15.76673 8.97724,-36.3175 7.93189,-54.47405 -3.0075,-15.16529 0.18857,-33.36312 -10.82281,-45.68314 -5.97654,-6.07196 -10.54232,-14.38479 -17.72432,-18.85258 z m 0.58594,5.73437 c 7.9897,10.80819 21.29336,19.60542 20.63326,34.54754 2.57971,23.73283 7.576,49.15154 -1.6218,72.04459 -7.29094,16.96161 -28.79289,6.36673 -28.89608,-9.13812 -3.72464,-32.77445 1.90685,-65.71354 9.88462,-97.45401 z"
         sodipodi:nodetypes="cccccccccccccccccccccccccccccccccccccccccccccccccccccccccccccccccccccccccccccccccccccccccccccccc" /></g></g></svg>
